<svg width="16" height="16" viewBox="0 0 16 16" fill="none" xmlns="http://www.w3.org/2000/svg">
<g clip-path="url(#clip0_21194_588)">
<path d="M5.49567 4.89328L1.24233 5.50995L1.167 5.52528C1.05296 5.55556 0.948996 5.61555 0.865727 5.69915C0.782459 5.78274 0.722868 5.88694 0.69304 6.0011C0.663213 6.11526 0.664217 6.23529 0.695951 6.34893C0.727684 6.46257 0.78901 6.56576 0.873666 6.64795L3.955 9.64728L3.22833 13.8839L3.21967 13.9573C3.21268 14.0752 3.23718 14.1929 3.29063 14.2983C3.34409 14.4037 3.42459 14.4929 3.52389 14.557C3.62319 14.621 3.73772 14.6575 3.85576 14.6627C3.9738 14.6679 4.09111 14.6416 4.19567 14.5866L7.99967 12.5866L11.795 14.5866L11.8617 14.6173C11.9717 14.6606 12.0913 14.6739 12.2082 14.6558C12.325 14.6377 12.435 14.5888 12.5267 14.5141C12.6185 14.4395 12.6887 14.3418 12.7302 14.231C12.7717 14.1203 12.7831 14.0005 12.763 13.8839L12.0357 9.64728L15.1183 6.64728L15.1703 6.59062C15.2446 6.49913 15.2933 6.38958 15.3115 6.27315C15.3296 6.15671 15.3166 6.03753 15.2737 5.92777C15.2308 5.818 15.1596 5.72157 15.0673 5.64829C14.975 5.57501 14.865 5.52751 14.7483 5.51062L10.495 4.89328L8.59367 1.03995C8.53865 0.928305 8.45348 0.834292 8.34779 0.768551C8.24211 0.702811 8.12013 0.667969 7.99567 0.667969C7.8712 0.667969 7.74922 0.702811 7.64354 0.768551C7.53785 0.834292 7.45268 0.928305 7.39767 1.03995L5.49567 4.89328Z" fill="#F9A63A"/>
</g>
<defs>
<clipPath id="clip0_21194_588">
<rect width="16" height="16" fill="white"/>
</clipPath>
</defs>
</svg>
